<?xml version="1.0" standalone="no"?>
<!DOCTYPE svg PUBLIC "-//W3C//DTD SVG 20010904//EN"
 "http://www.w3.org/TR/2001/REC-SVG-20010904/DTD/svg10.dtd">
<svg version="1.0" xmlns="http://www.w3.org/2000/svg"
 width="300.000000pt" height="180.000000pt" viewBox="0 0 300.000000 180.000000"
 preserveAspectRatio="xMidYMid meet">
<metadata>
Created by potrace 1.10, written by Peter Selinger 2001-2011
</metadata>
<g transform="translate(0.000000,180.000000) scale(0.100000,-0.100000)"
fill="#000000" stroke="none">
<path d="M1732 1545 c-7 -14 -12 -34 -12 -44 0 -17 -3 -17 -57 1 -52 18 -58
18 -69 4 -6 -9 -16 -16 -22 -16 -6 0 -32 -7 -58 -16 -42 -14 -47 -14 -63 0
-32 29 -169 9 -202 -30 -18 -22 -32 -17 -25 10 8 34 -6 39 -69 25 -47 -10 -55
-16 -55 -35 0 -32 -26 -37 -49 -9 -26 34 -35 31 -28 -10 4 -27 2 -35 -9 -35
-24 0 -101 -85 -132 -147 -32 -63 -63 -100 -105 -128 -26 -17 -37 -45 -17 -45
5 0 26 14 46 32 l36 32 -9 -50 c-19 -112 1 -281 35 -292 10 -3 12 5 7 34 -4
32 -2 29 13 -17 24 -72 72 -141 117 -169 40 -24 56 -20 37 10 -19 31 -14 42 8
20 30 -30 44 -14 18 20 -16 23 -22 48 -26 110 -2 44 -2 80 0 80 3 0 18 -20 34
-45 28 -45 43 -55 46 -32 1 6 4 -28 7 -78 l6 -90 -33 -38 c-32 -37 -33 -40
-30 -118 2 -58 -1 -82 -10 -88 -18 -11 -72 -118 -72 -142 0 -18 18 -19 465
-19 l465 0 -6 27 c-19 87 -37 151 -55 198 -11 29 -18 57 -17 62 2 5 -24 32
-57 60 -33 27 -77 71 -98 96 -31 38 -45 47 -70 47 l-32 1 30 24 c27 23 31 23
42 9 12 -17 58 -44 75 -44 5 0 8 26 6 58 -3 52 -1 57 18 60 12 2 38 18 58 36
34 32 36 37 36 99 0 94 7 105 37 65 33 -45 57 -131 48 -176 -4 -20 -16 -54
-27 -75 -10 -21 -17 -41 -15 -43 10 -10 40 11 62 45 23 32 25 33 25 12 0 -13
-5 -41 -12 -62 -6 -22 -8 -42 -5 -46 4 -3 26 14 49 38 24 24 48 43 54 41 15
-3 51 85 67 165 11 54 15 60 30 52 22 -13 79 -8 84 8 2 6 -6 13 -18 15 -35 5
-60 50 -80 144 -11 49 -33 118 -50 154 -48 104 -146 190 -215 190 -22 0 -24 2
-14 15 16 19 6 32 -37 50 -55 23 -88 19 -101 -10z m88 -36 c0 -5 -26 -33 -57
-64 -42 -41 -66 -56 -95 -60 -52 -8 -58 -2 -46 45 12 45 14 46 64 25 19 -8 32
-10 29 -5 -3 6 0 10 7 10 7 0 23 16 35 34 17 26 27 33 43 29 11 -3 20 -9 20
-14z m-372 -57 c22 -17 26 -17 83 1 33 11 62 18 64 15 3 -3 -2 -24 -10 -47
-16 -46 -11 -91 10 -91 8 0 24 4 37 9 13 4 40 11 61 15 l37 7 0 -43 c0 -50 26
-112 75 -178 50 -68 45 -123 -9 -113 -21 4 -24 11 -29 76 -6 79 -46 194 -77
222 -14 13 -10 -1 14 -49 55 -110 68 -221 35 -303 -14 -34 -23 -107 -23 -185
0 -48 -2 -54 -13 -40 -7 9 -13 33 -13 52 l-1 35 -14 -25 c-18 -31 -19 -14 -4
66 14 79 32 106 25 39 -5 -47 -5 -48 9 -25 11 22 11 38 0 102 -7 42 -17 83
-21 90 -4 7 5 2 19 -11 15 -14 27 -20 27 -13 0 6 -13 21 -29 34 -21 17 -36 46
-56 108 -15 47 -32 90 -38 95 -7 7 -8 4 -3 -9 17 -49 38 -147 32 -153 -11 -12
-23 11 -36 72 -13 64 -66 192 -76 183 -3 -4 3 -23 14 -45 16 -30 62 -175 62
-194 0 -2 -20 -3 -45 -1 -42 4 -45 6 -55 40 -5 21 -10 50 -10 65 0 18 -4 26
-11 21 -7 -4 -9 -28 -4 -73 4 -36 4 -63 -1 -59 -4 4 -10 47 -13 95 l-6 88 -24
-99 c-17 -74 -22 -119 -19 -183 l3 -84 -42 44 c-22 24 -46 62 -52 83 -17 61
-14 145 8 187 10 20 15 37 9 37 -14 0 -50 -88 -54 -134 -3 -33 -2 -36 5 -16 8
21 9 18 10 -23 1 -26 8 -62 17 -78 8 -17 13 -33 10 -36 -3 -3 -11 6 -17 20 -7
15 -15 24 -19 22 -11 -7 -29 18 -33 43 -2 12 -6 25 -10 28 -11 12 -8 75 8 133
9 34 26 66 46 87 18 19 28 34 22 34 -20 0 -71 -70 -82 -114 -6 -22 -12 -65
-14 -93 -1 -33 -7 -55 -16 -58 -10 -4 -12 3 -7 32 4 27 3 32 -3 17 -10 -22
-14 -59 -11 -84 1 -11 4 -9 10 5 7 16 9 17 9 3 1 -9 -3 -20 -9 -23 -5 -3 -10
-21 -11 -38 l-1 -32 -13 30 c-29 63 2 228 55 288 27 32 28 34 9 45 -20 13 -37
16 -26 6 4 -4 -13 -20 -37 -36 -39 -25 -47 -27 -71 -16 -14 6 -33 24 -41 39
-19 38 -18 42 9 24 13 -8 44 -18 70 -21 43 -6 49 -4 68 20 21 26 81 62 129 77
43 13 84 9 108 -9z m517 -24 c80 -53 128 -144 169 -322 9 -40 26 -80 38 -93
24 -26 13 -31 -18 -8 -14 9 -25 34 -33 76 -17 84 -24 69 -9 -18 9 -55 9 -85
-1 -139 -17 -100 -30 -113 -32 -34 -1 61 -2 63 -9 25 -5 -22 -11 -56 -14 -75
-3 -19 -16 -51 -28 -70 l-23 -35 -6 95 c-5 90 -33 210 -49 210 -4 0 1 -24 11
-52 21 -61 23 -121 6 -161 -11 -25 -12 -20 -12 50 -1 93 -14 122 -105 233 -85
104 -100 135 -100 216 0 62 2 68 34 100 29 29 41 34 83 34 39 0 60 -7 98 -32z
m-775 -2 c0 -17 -27 -29 -35 -16 -4 6 -3 15 0 20 9 15 35 12 35 -4z m-140 -69
c0 -7 -12 -14 -27 -15 -14 -1 -28 -4 -31 -7 -3 -2 -7 -36 -10 -74 l-5 -71 47
16 c26 9 49 14 52 12 2 -3 -2 -21 -10 -40 -9 -20 -20 -65 -26 -100 -5 -36 -20
-87 -31 -114 -28 -62 -30 -208 -5 -268 9 -22 14 -41 12 -43 -2 -2 -20 15 -39
39 -94 115 -122 298 -66 429 24 55 20 79 -5 30 -21 -40 -46 -159 -47 -224 -1
-52 -1 -52 -11 -17 -14 48 7 209 37 282 30 74 80 145 118 168 31 19 47 18 47
-3z m172 -20 c-34 -36 -62 -112 -69 -184 -4 -52 -11 -74 -29 -93 -26 -28 -44
-71 -44 -103 1 -12 9 2 19 31 21 60 51 100 51 69 0 -10 -7 -31 -15 -47 -8 -16
-20 -64 -27 -105 l-12 -76 -20 38 c-63 122 -6 377 102 460 50 38 76 44 44 10z
m-143 -41 c9 -11 8 -18 -4 -30 -25 -25 -55 -21 -55 7 0 13 3 27 7 30 11 12 40
8 52 -7z m391 -181 c12 -32 48 -75 62 -75 5 0 -1 18 -12 40 -26 52 -26 75 1
30 23 -38 69 -90 79 -90 14 0 30 52 24 76 -4 16 -2 24 6 24 9 0 11 -15 6 -57
-5 -41 -4 -54 3 -43 6 8 11 33 11 55 1 36 2 38 14 22 26 -34 28 -100 6 -166
-11 -33 -20 -77 -20 -98 0 -34 -5 -41 -48 -70 -65 -44 -157 -75 -207 -70 -46
5 -135 38 -182 67 -28 17 -33 25 -33 59 0 22 -9 68 -20 102 -10 35 -17 74 -13
87 l6 24 23 -29 23 -28 1 40 1 40 15 -34 c19 -44 25 -37 14 14 -19 79 -5 116
20 56 13 -33 67 -88 76 -78 4 4 31 -16 62 -44 57 -52 73 -57 51 -17 -15 27
-17 147 -4 233 l9 60 7 -50 c4 -27 12 -63 19 -80z m130 6 c12 -24 13 -68 2
-75 -10 -6 -54 38 -71 72 -11 21 -10 22 23 22 25 0 38 -6 46 -19z m212 -118
c28 -25 24 -88 -8 -118 -27 -25 -62 -41 -71 -32 -9 10 21 119 34 124 19 8 26
-2 26 -37 0 -20 4 -27 10 -21 15 15 -2 63 -23 68 -21 5 -25 15 -13 26 11 11
25 8 45 -10z m-782 -116 c-7 -38 -9 -89 -6 -115 6 -41 5 -44 -6 -27 -18 28
-17 171 2 215 21 50 26 15 10 -73z m125 10 c11 -38 11 -48 0 -64 -13 -17 -14
-16 -24 10 -12 32 -15 90 -4 100 9 10 13 4 28 -46z m36 -137 c11 0 2 -61 -11
-70 -4 -3 -12 -14 -18 -25 -9 -16 -11 -3 -11 65 0 81 1 84 15 58 8 -16 19 -28
25 -28z m363 -74 c-2 -28 -38 -96 -51 -96 -2 0 -17 9 -32 21 -23 17 -33 19
-50 10 -11 -6 -25 -20 -31 -31 -6 -11 -15 -20 -20 -20 -15 0 -12 36 8 74 14
30 22 36 52 36 19 0 53 9 75 19 53 25 51 26 49 -13z m-222 -42 c-2 -9 -8 -28
-13 -41 -9 -24 -10 -24 -53 28 -25 30 -42 57 -40 60 2 4 28 -1 57 -11 38 -14
51 -23 49 -36z m344 -16 c45 -49 89 -102 70 -86 -4 3 -42 -9 -83 -28 -42 -19
-77 -33 -78 -32 -1 2 -12 22 -24 46 l-22 42 26 37 c14 21 25 46 25 55 0 33 36
19 86 -34z m-456 13 c0 -5 2 -16 5 -23 4 -9 -5 -19 -21 -27 -15 -6 -24 -14
-21 -17 3 -3 19 2 36 10 39 21 41 20 41 -7 0 -16 -9 -28 -26 -36 -15 -6 -24
-14 -21 -17 3 -3 14 -1 25 5 29 16 42 14 42 -7 0 -11 -12 -22 -32 -30 -17 -6
-29 -14 -26 -18 4 -3 15 -1 26 5 12 6 28 11 37 11 14 0 14 -3 -1 -31 -12 -24
-18 -28 -24 -18 -6 9 -11 5 -16 -17 -3 -16 -18 -41 -32 -56 -14 -16 -21 -28
-16 -28 6 0 8 -16 6 -35 -5 -40 -15 -43 -67 -18 -38 18 -41 24 -24 55 8 15 7
41 -7 104 -21 101 -15 118 53 168 50 37 63 42 63 27z m263 -70 c20 -22 43 -54
52 -71 15 -30 15 -33 -16 -87 -32 -56 -32 -57 -17 -99 11 -30 12 -46 5 -53
-21 -21 7 -11 30 11 30 28 29 38 -2 38 -14 0 -25 5 -25 10 0 6 15 10 34 10 31
0 34 -3 44 -42 6 -23 9 -44 7 -46 -2 -2 -47 -1 -99 3 -82 6 -96 10 -96 25 0 9
-9 25 -20 35 -10 9 -24 33 -30 51 -7 19 -16 34 -21 34 -6 0 -7 -4 -4 -10 3 -5
-1 -10 -9 -10 -9 0 -16 9 -16 20 0 32 3 35 37 36 18 0 35 3 39 6 9 9 -54 20
-67 12 -9 -5 -10 -2 -6 10 4 10 7 22 7 28 0 7 18 9 50 5 60 -7 59 10 -1 19
-35 6 -39 9 -33 28 9 31 9 31 59 11 50 -18 75 -14 31 6 -32 15 -33 23 -4 43
30 22 31 21 71 -23z m349 -90 c10 -27 51 -167 62 -213 l6 -28 -60 0 c-33 0
-60 3 -60 7 0 3 12 26 26 50 14 24 24 49 21 56 -2 7 -18 -16 -36 -50 l-31 -63
-55 0 c-30 0 -55 4 -55 10 0 36 59 148 104 197 28 31 41 51 30 45 -53 -28
-125 -142 -140 -219 -9 -46 -21 -41 -37 15 -12 39 -18 48 -40 50 -33 4 -33 5
-1 48 15 19 25 37 22 39 -3 3 -18 -13 -33 -35 -34 -49 -66 -57 -38 -9 16 28
73 69 73 53 0 -4 8 -1 18 7 39 33 174 81 200 71 8 -3 18 -16 24 -31z m-552
-85 c0 -26 23 -51 39 -42 5 4 16 -7 24 -23 13 -26 13 -32 1 -42 -8 -6 -14 -20
-14 -30 0 -14 -7 -19 -30 -19 -34 0 -35 2 -18 30 10 16 9 23 -12 45 -13 14
-28 25 -33 25 -6 0 0 -11 13 -25 20 -21 22 -28 12 -50 -11 -24 -14 -25 -116
-25 -128 0 -135 6 -104 78 18 40 28 52 46 52 13 0 20 -4 17 -10 -3 -5 -13 -10
-21 -10 -37 0 2 -61 52 -80 55 -21 119 -5 95 23 -13 17 -11 58 5 78 6 8 14 22
17 32 9 25 27 21 27 -7z m100 -116 c0 -5 -6 -10 -12 -10 -8 0 -5 -7 6 -15 19
-15 19 -15 -1 -15 -28 0 -38 17 -23 35 14 17 30 20 30 5z"/>
<path d="M1380 1223 c0 -15 5 -35 10 -43 7 -11 10 -6 10 22 0 20 -4 40 -10 43
-6 4 -10 -6 -10 -22z"/>
<path d="M1863 1427 c27 -8 62 -24 78 -37 17 -12 33 -19 36 -17 11 12 -75 56
-117 62 l-45 5 48 -13z"/>
<path d="M1994 1341 c4 -5 2 -11 -3 -13 -6 -1 8 -30 31 -63 51 -77 51 -77 33
-25 -15 43 -53 110 -61 110 -3 0 -3 -4 0 -9z"/>
<path d="M1946 1248 c23 -45 54 -84 54 -68 0 19 -49 100 -61 100 -5 0 -2 -15
7 -32z"/>
<path d="M2010 1209 c0 -26 4 -36 16 -36 11 0 14 7 9 26 -11 43 -25 49 -25 10z"/>
<path d="M967 1127 c-4 -10 -7 -31 -6 -45 l0 -27 10 25 c5 13 8 33 7 45 -3 19
-4 19 -11 2z"/>
<path d="M1485 1012 c3 -3 -3 -10 -12 -17 -10 -8 -14 -19 -9 -30 6 -17 8 -17
29 4 31 28 68 27 97 -4 24 -26 50 -33 50 -14 0 5 3 8 8 6 4 -3 7 5 7 18 0 19
-3 21 -21 15 -12 -5 -26 -4 -31 1 -6 6 -36 14 -67 18 -31 4 -54 5 -51 3z"/>
<path d="M1270 979 c0 -5 -5 -7 -10 -4 -6 4 -19 -4 -30 -17 -17 -20 -21 -21
-40 -10 -18 11 -21 11 -14 0 5 -7 9 -17 10 -23 0 -5 2 -16 2 -22 3 -22 28 -14
40 11 14 31 43 48 63 35 19 -12 39 -11 39 2 0 6 -9 13 -21 16 -16 4 -17 8 -7
14 9 6 7 9 -9 9 -13 0 -23 -5 -23 -11z"/>
<path d="M1393 875 c-7 -8 -13 -19 -13 -25 0 -16 30 -12 37 6 8 22 -9 35 -24
19z"/>
<path d="M1558 879 c-23 -13 -11 -39 18 -39 28 0 44 28 23 41 -17 11 -20 11
-41 -2z"/>
<path d="M1225 840 c-10 -16 4 -30 29 -30 29 0 39 10 25 27 -13 15 -45 17 -54
3z"/>
<path d="M1387 807 l-28 -12 23 -35 c13 -19 33 -36 44 -38 26 -4 54 28 57 64
2 26 -1 29 -33 31 -19 2 -48 -3 -63 -10z m67 -13 c24 -9 1 -44 -29 -44 -27 0
-39 14 -31 35 6 16 33 19 60 9z"/>
<path d="M1138 455 c3 -17 11 -25 25 -25 20 0 20 1 -3 25 -13 14 -24 25 -25
25 -1 0 0 -11 3 -25z"/>
<path d="M1465 430 c-39 -40 -40 -49 -4 -30 16 9 57 70 46 70 -1 0 -21 -18
-42 -40z"/>
</g>
</svg>
